<svg xmlns="http://www.w3.org/2000/svg" viewBox="0 0 512 512">
  <circle cx="176" cy="96" r="80" fill="#000"/>
  <circle cx="336" cy="96" r="80" fill="#000"/>
  <path d="M256 210 c-40-50-110-50-130 10-20 60 50 110 130 170 80-60 150-110 130-170-20-60-90-60-130-10z" fill="#fff"/>
  <path d="M0 416 c0-120 80-192 176-192 40 0 56 10 80 36 24-26 40-36 80-36 96 0 176 72 176 192v96H0z" fill="#000"/>
  <path d="M256 210 c-40-50-110-50-130 10-20 60 50 110 130 170 80-60 150-110 130-170-20-60-90-60-130-10z" fill="#fff"/>
</svg>